<?xml version="1.0" encoding="utf-8"?>
<!-- Generator: Adobe Illustrator 15.1.0, SVG Export Plug-In . SVG Version: 6.00 Build 0)  -->
<!DOCTYPE svg PUBLIC "-//W3C//DTD SVG 1.1//EN" "http://www.w3.org/Graphics/SVG/1.1/DTD/svg11.dtd" [
	<!ENTITY ns_extend "http://ns.adobe.com/Extensibility/1.0/">
	<!ENTITY ns_ai "http://ns.adobe.com/AdobeIllustrator/10.0/">
	<!ENTITY ns_graphs "http://ns.adobe.com/Graphs/1.0/">
	<!ENTITY ns_vars "http://ns.adobe.com/Variables/1.0/">
	<!ENTITY ns_imrep "http://ns.adobe.com/ImageReplacement/1.0/">
	<!ENTITY ns_sfw "http://ns.adobe.com/SaveForWeb/1.0/">
	<!ENTITY ns_custom "http://ns.adobe.com/GenericCustomNamespace/1.0/">
	<!ENTITY ns_adobe_xpath "http://ns.adobe.com/XPath/1.0/">
]>
<svg version="1.1" id="Layer_1" xmlns:x="&ns_extend;" xmlns:i="&ns_ai;" xmlns:graph="&ns_graphs;"
	 xmlns="http://www.w3.org/2000/svg" xmlns:xlink="http://www.w3.org/1999/xlink" x="0px" y="0px" width="141.73px"
	 height="28.35px" viewBox="0 0 141.73 28.35" enable-background="new 0 0 141.73 28.35" xml:space="preserve">
<metadata>
	<sfw  xmlns="&ns_sfw;">
		<slices>
			<slice  y="-29" x="0" width="142" height="29" sliceID="1461396731"></slice>
		</slices>
		<sliceSourceBounds  y="-29" x="-0.002" width="142.002" height="29" bottomLeftOrigin="true"></sliceSourceBounds>
	</sfw>
</metadata>
<g>
	<path fill="#19569C" d="M64.027,0.001L57.622,21.25L52.259,3.663c-1.011-3.169-1.521-3.661-3.453-3.661l-5.01,0.004l9.27,27.965
		l6.8,0.004l8.638-27.973H64.027z"/>
	<path fill="#19569C" d="M39.789,10.977l1.385-2.03c2.929-4.291,0.913-8.945-4.871-8.945H23.97v27.987h11.899
		C46.337,27.988,49.496,15.949,39.789,10.977z M32.646,24.23h-2.014V3.654h3.634c1.756,0,3.275,1.435,3.275,3.144
		c0,0.612-0.125,1.16-0.723,2.035l-2.364,3.481c2.469,0.591,4.117,2.444,4.117,5.913C38.572,22.436,36.016,24.23,32.646,24.23z"/>
	<path fill="#19569C" d="M15.82,10.977l1.386-2.03c2.929-4.291,0.913-8.945-4.869-8.945H-0.002v27.987H11.9
		C22.367,27.988,25.522,15.949,15.82,10.977z M8.677,24.23H6.663V3.654H10.3c1.751,0,3.273,1.435,3.273,3.144
		c0,0.612-0.125,1.16-0.723,2.035l-2.363,3.481c2.465,0.591,4.115,2.444,4.115,5.913C14.603,22.436,12.046,24.23,8.677,24.23z"/>
	<path fill="#19569C" d="M79.271,0.007l-5.414-0.002l-8.671,27.973h4.419l1.859-6.039h10.308l1.868,6.039h7.659L82.701,2.86
		C81.904,0.524,81.365,0.007,79.271,0.007z M72.705,17.846l3.866-12.761l3.925,12.761H72.705z"/>
	<path fill="#19569C" d="M109.955,13.307c-0.342-0.479-0.788-0.861-1.338-1.149c-0.55-0.287-1.227-0.431-2.03-0.431
		c-0.638,0-1.221,0.088-1.749,0.268s-1.002,0.435-1.42,0.767s-0.786,0.728-1.105,1.188c-0.319,0.463-0.595,0.977-0.826,1.541h-0.065
		v-3.406h-3.037v15.888h3.037v-6.746c0-0.391,0.035-0.824,0.107-1.295c0.072-0.473,0.184-0.949,0.338-1.426
		c0.155-0.479,0.345-0.945,0.57-1.402c0.225-0.455,0.497-0.861,0.816-1.213c0.319-0.354,0.68-0.637,1.081-0.848
		c0.402-0.212,0.851-0.319,1.346-0.319c0.44,0,0.795,0.065,1.064,0.196c0.27,0.13,0.481,0.312,0.636,0.544
		c0.153,0.234,0.264,0.512,0.33,0.832c0.065,0.32,0.109,0.666,0.132,1.035c0.022,0.336,0.032,0.674,0.032,1.01
		c0,0.326,0,0.646,0,0.963v8.668h3.037V16.957c0-0.695-0.074-1.357-0.223-1.988C110.54,14.338,110.295,13.786,109.955,13.307z"/>
	<path fill="#19569C" d="M125.709,13.536c-0.479-0.565-1.082-1.008-1.808-1.329c-0.727-0.319-1.585-0.479-2.575-0.479
		c-1.155,0-2.146,0.189-2.971,0.569c-0.826,0.381-1.505,0.907-2.038,1.581c-0.534,0.673-0.925,1.47-1.172,2.388
		c-0.248,0.918-0.372,1.914-0.372,2.988c0,1.314,0.148,2.527,0.446,3.635c0.297,1.107,0.764,2.066,1.402,2.877
		c0.639,0.809,1.461,1.441,2.469,1.898c1.006,0.455,2.225,0.684,3.655,0.684c0.692,0,1.366-0.053,2.021-0.154
		c0.655-0.104,1.323-0.23,2.006-0.383V25.43c-0.507,0.186-1.005,0.328-1.495,0.426c-0.489,0.096-1.004,0.146-1.542,0.146
		c-1.013,0-1.89-0.207-2.633-0.619c-0.743-0.414-1.356-0.955-1.841-1.623c-0.483-0.668-0.847-1.43-1.089-2.289
		c-0.242-0.857-0.363-1.727-0.363-2.607h9.326v-0.766c0-0.912-0.119-1.76-0.355-2.543C126.545,14.774,126.188,14.1,125.709,13.536z
		 M117.942,16.859c0-0.162,0.025-0.324,0.075-0.486c0.049-0.16,0.107-0.318,0.173-0.469c0.274-0.605,0.674-1.061,1.196-1.37
		c0.522-0.308,1.114-0.462,1.774-0.462c0.419,0,0.807,0.067,1.164,0.203c0.357,0.134,0.668,0.324,0.933,0.567
		c0.264,0.241,0.47,0.534,0.619,0.874c0.147,0.342,0.223,0.723,0.223,1.143H117.942z"/>
	<path fill="#19569C" d="M139.728,14.431v-2.347h-4.456V6.479l-3.036,1.874v3.731h-2.872v2.347h2.872v10.038
		c0,0.762,0.12,1.393,0.36,1.891c0.241,0.5,0.575,0.896,1.002,1.189s0.933,0.5,1.52,0.619c0.587,0.121,1.231,0.18,1.937,0.18
		c0.825,0,1.628-0.082,2.41-0.244v-2.33c-0.254,0.088-0.52,0.146-0.801,0.178c-0.281,0.033-0.559,0.051-0.834,0.051
		c-0.527,0-0.96-0.076-1.295-0.229c-0.336-0.152-0.598-0.367-0.784-0.645c-0.188-0.277-0.313-0.605-0.38-0.986
		c-0.065-0.379-0.099-0.791-0.099-1.238v-8.473H139.728z"/>
	<rect id="slice_bbva" y="0.001" fill="none" width="141.732" height="28.346"/>
</g>
</svg>
