<?xml version="1.0" encoding="UTF-8" standalone="no"?>
<svg
   xmlns:dc="http://purl.org/dc/elements/1.1/"
   xmlns:cc="http://creativecommons.org/ns#"
   xmlns:rdf="http://www.w3.org/1999/02/22-rdf-syntax-ns#"
   xmlns:svg="http://www.w3.org/2000/svg"
   xmlns="http://www.w3.org/2000/svg"
   id="svg6636"
   version="1.1"
   viewBox="0 0 26.458334 20.530758"
   height="20.530758mm"
   width="26.458334mm">
  <defs
     id="defs6630" />
  <metadata
     id="metadata6633">
    <rdf:RDF>
      <cc:Work
         rdf:about="">
        <dc:format>image/svg+xml</dc:format>
        <dc:type
           rdf:resource="http://purl.org/dc/dcmitype/StillImage" />
        <dc:title></dc:title>
      </cc:Work>
    </rdf:RDF>
  </metadata>
  <g
     transform="translate(87.996639,-60.157247)"
     id="layer1">
    <g
       transform="matrix(0.22711016,0,0,0.22711016,-164.69174,0.90420655)"
       id="g7194">
      <g
         id="g7186">
        <path
           d="m 358.9,351.1 v -6 c 0,-2.3 -1.4,-3.8 -3.8,-3.8 -1.2,0 -2.5,0.4 -3.4,1.7 -0.7,-1.1 -1.7,-1.7 -3.2,-1.7 -1,0 -2,0.3 -2.8,1.4 v -1.2 h -2.1 v 9.6 h 2.1 v -5.3 c 0,-1.7 0.9,-2.5 2.3,-2.5 1.4,0 2.1,0.9 2.1,2.5 v 5.3 h 2.1 v -5.3 c 0,-1.7 1,-2.5 2.3,-2.5 1.4,0 2.1,0.9 2.1,2.5 v 5.3 z m 31.1,-9.6 h -3.4 v -2.9 h -2.1 v 2.9 h -1.9 v 1.9 h 1.9 v 4.4 c 0,2.2 0.9,3.5 3.3,3.5 0.9,0 1.9,-0.3 2.6,-0.7 l -0.6,-1.8 c -0.6,0.4 -1.3,0.5 -1.8,0.5 -1,0 -1.4,-0.6 -1.4,-1.6 v -4.3 h 3.4 z m 17.8,-0.2 c -1.2,0 -2,0.6 -2.5,1.4 v -1.2 h -2.1 v 9.6 h 2.1 v -5.4 c 0,-1.6 0.7,-2.5 2,-2.5 0.4,0 0.9,0.1 1.3,0.2 l 0.6,-2 c -0.4,-0.1 -1,-0.1 -1.4,-0.1 z m -26.9,1 c -1,-0.7 -2.4,-1 -3.9,-1 -2.4,0 -4,1.2 -4,3.1 0,1.6 1.2,2.5 3.3,2.8 l 1,0.1 c 1.1,0.2 1.7,0.5 1.7,1 0,0.7 -0.8,1.2 -2.2,1.2 -1.4,0 -2.5,-0.5 -3.2,-1 l -1,1.6 c 1.1,0.8 2.6,1.2 4.1,1.2 2.8,0 4.4,-1.3 4.4,-3.1 0,-1.7 -1.3,-2.6 -3.3,-2.9 l -1,-0.1 c -0.9,-0.1 -1.6,-0.3 -1.6,-0.9 0,-0.7 0.7,-1.1 1.8,-1.1 1.2,0 2.4,0.5 3,0.8 z m 55.8,-1 c -1.2,0 -2,0.6 -2.5,1.4 v -1.2 h -2.1 v 9.6 h 2.1 v -5.4 c 0,-1.6 0.7,-2.5 2,-2.5 0.4,0 0.9,0.1 1.3,0.2 l 0.6,-2 c -0.4,-0.1 -1,-0.1 -1.4,-0.1 z m -26.8,5 c 0,2.9 2,5 5.1,5 1.4,0 2.4,-0.3 3.4,-1.1 l -1,-1.7 c -0.8,0.6 -1.6,0.9 -2.5,0.9 -1.7,0 -2.9,-1.2 -2.9,-3.1 0,-1.8 1.2,-3 2.9,-3.1 0.9,0 1.7,0.3 2.5,0.9 l 1,-1.7 c -1,-0.8 -2,-1.1 -3.4,-1.1 -3.1,0 -5.1,2.1 -5.1,5 z m 19.4,0 v -4.8 h -2.1 v 1.2 c -0.7,-0.9 -1.7,-1.4 -3,-1.4 -2.7,0 -4.8,2.1 -4.8,5 0,2.9 2.1,5 4.8,5 1.4,0 2.4,-0.5 3,-1.4 v 1.2 h 2.1 z m -7.7,0 c 0,-1.7 1.1,-3.1 2.9,-3.1 1.7,0 2.9,1.3 2.9,3.1 0,1.7 -1.2,3.1 -2.9,3.1 -1.8,-0.1 -2.9,-1.4 -2.9,-3.1 z m -25.1,-5 c -2.8,0 -4.8,2 -4.8,5 0,3 2,5 4.9,5 1.4,0 2.8,-0.4 3.9,-1.3 l -1,-1.5 c -0.8,0.6 -1.8,1 -2.8,1 -1.3,0 -2.6,-0.6 -2.9,-2.3 h 7.1 c 0,-0.3 0,-0.5 0,-0.8 0.1,-3.1 -1.7,-5.1 -4.4,-5.1 z m 0,1.8 c 1.3,0 2.2,0.8 2.4,2.3 h -5 c 0.2,-1.3 1.1,-2.3 2.6,-2.3 z m 52.1,3.2 v -8.6 h -2.1 v 5 c -0.7,-0.9 -1.7,-1.4 -3,-1.4 -2.7,0 -4.8,2.1 -4.8,5 0,2.9 2.1,5 4.8,5 1.4,0 2.4,-0.5 3,-1.4 v 1.2 h 2.1 z m -7.7,0 c 0,-1.7 1.1,-3.1 2.9,-3.1 1.7,0 2.9,1.3 2.9,3.1 0,1.7 -1.2,3.1 -2.9,3.1 -1.8,-0.1 -2.9,-1.4 -2.9,-3.1 z m -70.2,0 v -4.8 h -2.1 v 1.2 c -0.7,-0.9 -1.7,-1.4 -3,-1.4 -2.7,0 -4.8,2.1 -4.8,5 0,2.9 2.1,5 4.8,5 1.4,0 2.4,-0.5 3,-1.4 v 1.2 h 2.1 z m -7.8,0 c 0,-1.7 1.1,-3.1 2.9,-3.1 1.7,0 2.9,1.3 2.9,3.1 0,1.7 -1.2,3.1 -2.9,3.1 -1.8,-0.1 -2.9,-1.4 -2.9,-3.1 z"
           id="XMLID_1775_" />
      </g>
      <g
         id="XMLID_328_">
        <rect
           id="rect7188"
           height="56.599998"
           width="31.5"
           class="st1"
           y="268.60001"
           x="380.20001"
           style="fill:#ff5f00" />
        <path
           d="m 382.2,296.9 c 0,-11.5 5.4,-21.7 13.7,-28.3 -6.1,-4.8 -13.8,-7.7 -22.2,-7.7 -19.9,0 -36,16.1 -36,36 0,19.9 16.1,36 36,36 8.4,0 16.1,-2.9 22.2,-7.7 -8.3,-6.5 -13.7,-16.8 -13.7,-28.3 z"
           class="st2"
           id="XMLID_330_"
           style="fill:#eb001b" />
        <path
           id="path7191"
           d="m 454.2,296.9 c 0,19.9 -16.1,36 -36,36 -8.4,0 -16.1,-2.9 -22.2,-7.7 8.4,-6.6 13.7,-16.8 13.7,-28.3 0,-11.5 -5.4,-21.7 -13.7,-28.3 6.1,-4.8 13.8,-7.7 22.2,-7.7 19.9,0 36,16.2 36,36 z"
           class="st3"
           style="fill:#f79e1b" />
      </g>
    </g>
  </g>
  <style
     type="text/css"
     id="style7181">
	.st0{fill:none;}
	.st1{fill:#FF5F00;}
	.st2{fill:#EB001B;}
	.st3{fill:#F79E1B;}
</style>
</svg>
