<?xml version="1.0" encoding="utf-8"?>
<!-- Generator: Adobe Illustrator 15.1.0, SVG Export Plug-In . SVG Version: 6.00 Build 0)  -->
<!DOCTYPE svg PUBLIC "-//W3C//DTD SVG 1.1//EN" "http://www.w3.org/Graphics/SVG/1.1/DTD/svg11.dtd" [
	<!ENTITY ns_extend "http://ns.adobe.com/Extensibility/1.0/">
	<!ENTITY ns_ai "http://ns.adobe.com/AdobeIllustrator/10.0/">
	<!ENTITY ns_graphs "http://ns.adobe.com/Graphs/1.0/">
	<!ENTITY ns_vars "http://ns.adobe.com/Variables/1.0/">
	<!ENTITY ns_imrep "http://ns.adobe.com/ImageReplacement/1.0/">
	<!ENTITY ns_sfw "http://ns.adobe.com/SaveForWeb/1.0/">
	<!ENTITY ns_custom "http://ns.adobe.com/GenericCustomNamespace/1.0/">
	<!ENTITY ns_adobe_xpath "http://ns.adobe.com/XPath/1.0/">
]>
<svg version="1.1" xmlns:x="&ns_extend;" xmlns:i="&ns_ai;" xmlns:graph="&ns_graphs;"
     xmlns="http://www.w3.org/2000/svg" xmlns:xlink="http://www.w3.org/1999/xlink"  viewBox="0 0 98 28" xml:space="preserve">

<g id="visa">
	<g id="g12" transform="translate(143.448,67.609)">
        <path id="path14" fill="#2C3B92" d="M-112.843-39.67l4.399-27.46h7.032l-4.399,27.46H-112.843"/>
	</g>
	<g id="g16" transform="translate(224.353,133.66)">
		<path id="path18" fill="#2C3B92" d="M-161.208-132.508c-1.391-0.551-3.577-1.152-6.301-1.152c-6.952,0-11.847,3.727-11.887,9.063
			c-0.044,3.947,3.492,6.148,6.158,7.46c2.74,1.345,3.661,2.206,3.65,3.408c-0.02,1.839-2.188,2.682-4.209,2.682
			c-2.815,0-4.311-0.415-6.624-1.44l-0.904-0.437l-0.983,6.147c1.64,0.765,4.679,1.429,7.834,1.464c7.389,0,12.19-3.682,12.246-9.38
			c0.026-3.13-1.848-5.503-5.906-7.462c-2.458-1.273-3.966-2.117-3.949-3.405c0.002-1.142,1.274-2.363,4.029-2.363
			c2.3-0.037,3.966,0.497,5.263,1.055l0.631,0.314L-161.208-132.508"/>
	</g>
	<g id="g20" transform="translate(247.634,91.616)">
		<path id="path22" fill="#2C3B92" d="M-175.125-73.413c0.583-1.578,2.801-7.675,2.801-7.675c-0.041,0.072,0.579-1.591,0.934-2.62
			l0.475,2.368c0,0,1.349,6.555,1.627,7.927C-170.383-73.413-173.752-73.413-175.125-73.413z M-166.45-91.11h-5.435
			c-1.686,0-2.947,0.486-3.686,2.276l-10.443,25.167h7.386c0,0,1.205-3.386,1.478-4.129c0.805,0,7.982,0.015,9.007,0.015
			c0.21,0.958,0.856,4.114,0.856,4.114h6.527L-166.45-91.11"/>
	</g>
	<g id="g24" transform="translate(128.78,135.265)">
		<path id="path26" fill="#2C3B92" d="M-104.074-134.764l-6.883,18.722l-0.737-3.805c-1.282-4.385-5.275-9.138-9.741-11.519
			l6.296,24.016l7.442-0.004l11.074-27.409H-104.074"/>
	</g>
	<g id="g28" transform="translate(95.781,135.311)">
		<path id="path30" fill="#F6961E" d="M-84.347-134.828h-11.34l-0.094,0.569c8.824,2.275,14.663,7.766,17.085,14.366l-2.464-12.618
			C-81.585-134.251-82.82-134.767-84.347-134.828"/>
	</g>
	<g id="g32" transform="translate(288.329,72.034)">
		<path id="path34" fill="#2C3B92" d="M-199.453-45.889h0.333c0.235,0,0.283-0.138,0.283-0.25c0-0.192-0.123-0.237-0.315-0.237
			h-0.301V-45.889z M-199.74-46.589h0.686c0.16,0,0.511,0.042,0.511,0.45c0,0.108-0.032,0.26-0.261,0.359v0.008
			c0.198,0.034,0.208,0.224,0.22,0.375c0.015,0.243,0,0.286,0.063,0.372h-0.298c-0.057-0.058-0.044-0.103-0.057-0.357
			c0-0.145-0.018-0.292-0.34-0.292h-0.236v0.649h-0.288V-46.589z M-199.173-44.467c0.705,0,1.26-0.59,1.26-1.328
			c0-0.739-0.555-1.329-1.26-1.329s-1.259,0.59-1.259,1.329C-200.433-45.057-199.878-44.467-199.173-44.467z M-199.173-47.361
			c0.87,0,1.553,0.702,1.553,1.566c0,0.864-0.683,1.566-1.553,1.566c-0.87,0-1.552-0.702-1.552-1.566
			C-200.725-46.659-200.043-47.361-199.173-47.361"/>
	</g>	
</g>
</svg>
